<svg width="28" height="28" viewBox="0 0 28 28" fill="none" xmlns="http://www.w3.org/2000/svg">
<path d="M14 15.1665V24.4998L9.33334 19.8332" stroke="#282868" stroke-width="2.5" stroke-linecap="round" stroke-linejoin="round"/>
<path d="M14 24.5002L18.6667 19.8335" stroke="#282868" stroke-width="2.5" stroke-linecap="round" stroke-linejoin="round"/>
<path d="M5.12516 17.8138C4.1723 16.9803 3.42629 15.9366 2.94602 14.7652C2.46576 13.5939 2.2644 12.3269 2.35785 11.0643C2.4513 9.80178 2.837 8.57825 3.48449 7.49036C4.13198 6.40246 5.02352 5.48 6.08872 4.79582C7.15392 4.11163 8.3636 3.68446 9.62222 3.54804C10.8809 3.41162 12.154 3.56969 13.341 4.00975C14.5281 4.44982 15.5966 5.15984 16.4621 6.08374C17.3276 7.00764 17.9665 8.12012 18.3283 9.33332H20.4167C21.5507 9.33318 22.6544 9.70026 23.5624 10.3797C24.4705 11.059 25.1341 12.0142 25.4541 13.1022C25.774 14.1902 25.733 15.3526 25.3373 16.4154C24.9415 17.4782 24.2123 18.3842 23.2587 18.998" stroke="#282868" stroke-width="2.5" stroke-linecap="round" stroke-linejoin="round"/>
</svg>
