<svg width="70" height="70" viewBox="0 0 70 70" fill="none" xmlns="http://www.w3.org/2000/svg">
<path d="M31.2083 58.3334H11.6666C10.1195 58.3334 8.63576 57.7188 7.5418 56.6248C6.44783 55.5309 5.83325 54.0471 5.83325 52.5V14.5834C5.83325 13.0363 6.44783 11.5525 7.5418 10.4586C8.63576 9.36462 10.1195 8.75004 11.6666 8.75004H23.0416C24.0172 8.74047 24.9796 8.97575 25.8407 9.43434C26.7018 9.89294 27.4342 10.5602 27.9708 11.375L30.3332 14.875C30.8644 15.6816 31.5875 16.3436 32.4376 16.8018C33.2878 17.26 34.2383 17.4999 35.2041 17.5H58.3332C59.8803 17.5 61.3641 18.1146 62.458 19.2086C63.552 20.3025 64.1666 21.7863 64.1666 23.3334V35.2917" stroke="black" stroke-width="4" stroke-linecap="round" stroke-linejoin="round"/>
<path d="M61.2499 61.2499L55.7083 55.7083" stroke="#E06B74" stroke-width="4" stroke-linecap="round" stroke-linejoin="round"/>
<path d="M49.5833 58.3333C54.4157 58.3333 58.3333 54.4157 58.3333 49.5833C58.3333 44.7508 54.4157 40.8333 49.5833 40.8333C44.7508 40.8333 40.8333 44.7508 40.8333 49.5833C40.8333 54.4157 44.7508 58.3333 49.5833 58.3333Z" stroke="#E06B74" stroke-width="4" stroke-linecap="round" stroke-linejoin="round"/>
</svg>
