<svg width="70" height="70" viewBox="0 0 70 70" fill="none" xmlns="http://www.w3.org/2000/svg">
<path d="M11.6666 58.3333H58.3332C59.8803 58.3333 61.3641 57.7187 62.458 56.6248C63.552 55.5308 64.1666 54.0471 64.1666 52.5V23.3333C64.1666 21.7862 63.552 20.3025 62.458 19.2085C61.3641 18.1146 59.8803 17.5 58.3332 17.5H35.2041C34.2433 17.495 33.2986 17.2528 32.454 16.7949C31.6093 16.3369 30.8908 15.6774 30.3624 14.875L27.9708 11.375C27.4423 10.5726 26.7239 9.91307 25.8792 9.45513C25.0346 8.99719 24.0899 8.75497 23.1291 8.75H11.6666C10.1195 8.75 8.63576 9.36458 7.5418 10.4585C6.44783 11.5525 5.83325 13.0362 5.83325 14.5833V52.5C5.83325 55.7083 8.45825 58.3333 11.6666 58.3333Z" stroke="black" stroke-width="4" stroke-linecap="round" stroke-linejoin="round"/>
<path d="M23.3333 29.1667V40.8334" stroke="#E06B74" stroke-width="4" stroke-linecap="round" stroke-linejoin="round"/>
<path d="M35 29.1667V35.0001" stroke="black" stroke-width="4" stroke-linecap="round" stroke-linejoin="round"/>
<path d="M46.6667 29.1667V46.6667" stroke="#E06B74" stroke-width="4" stroke-linecap="round" stroke-linejoin="round"/>
</svg>
