<svg width="70" height="70" viewBox="0 0 70 70" fill="none" xmlns="http://www.w3.org/2000/svg">
<path d="M32.0833 43.7499H37.9167C39.4638 43.7499 40.9475 43.1353 42.0415 42.0414C43.1354 40.9474 43.75 39.4637 43.75 37.9166C43.75 36.3695 43.1354 34.8858 42.0415 33.7918C40.9475 32.6978 39.4638 32.0833 37.9167 32.0833H29.1667C27.4167 32.0833 25.9583 32.6666 25.0833 33.8333L8.75 49.5833" stroke="black" stroke-width="4" stroke-linecap="round" stroke-linejoin="round"/>
<path d="M20.4166 61.2501L25.0833 57.1667C25.9583 56.0001 27.4166 55.4167 29.1666 55.4167H40.8333C44.0416 55.4167 46.9583 54.2501 49 51.9167L62.4166 39.0834C63.5421 38.0198 64.199 36.5526 64.2428 35.0046C64.2865 33.4567 63.7136 31.9547 62.65 30.8292C61.5863 29.7037 60.1192 29.0468 58.5712 29.0031C57.0232 28.9593 55.5213 29.5323 54.3958 30.5959L42.1458 41.9709" stroke="black" stroke-width="4" stroke-linecap="round" stroke-linejoin="round"/>
<path d="M5.83337 46.6667L23.3334 64.1667" stroke="black" stroke-width="4" stroke-linecap="round" stroke-linejoin="round"/>
<path d="M46.6667 34.7084C51.3381 34.7084 55.125 30.9215 55.125 26.2501C55.125 21.5787 51.3381 17.7917 46.6667 17.7917C41.9953 17.7917 38.2084 21.5787 38.2084 26.2501C38.2084 30.9215 41.9953 34.7084 46.6667 34.7084Z" stroke="#E06B74" stroke-width="4" stroke-linecap="round" stroke-linejoin="round"/>
<path d="M17.5 23.3333C22.3325 23.3333 26.25 19.4157 26.25 14.5833C26.25 9.75076 22.3325 5.83325 17.5 5.83325C12.6675 5.83325 8.75 9.75076 8.75 14.5833C8.75 19.4157 12.6675 23.3333 17.5 23.3333Z" stroke="#E06B74" stroke-width="4" stroke-linecap="round" stroke-linejoin="round"/>
</svg>
