<svg width="70" height="70" viewBox="0 0 70 70" fill="none" xmlns="http://www.w3.org/2000/svg">
<path d="M23.3334 64.1666C24.9442 64.1666 26.2501 62.8607 26.2501 61.2499C26.2501 59.6391 24.9442 58.3333 23.3334 58.3333C21.7226 58.3333 20.4167 59.6391 20.4167 61.2499C20.4167 62.8607 21.7226 64.1666 23.3334 64.1666Z" stroke="#E06B74" stroke-width="4" stroke-linecap="round" stroke-linejoin="round"/>
<path d="M55.4167 64.1666C57.0275 64.1666 58.3333 62.8607 58.3333 61.2499C58.3333 59.6391 57.0275 58.3333 55.4167 58.3333C53.8058 58.3333 52.5 59.6391 52.5 61.2499C52.5 62.8607 53.8058 64.1666 55.4167 64.1666Z" stroke="#E06B74" stroke-width="4" stroke-linecap="round" stroke-linejoin="round"/>
<path d="M5.97925 5.97925H11.8126L19.5709 42.2042C19.8555 43.5309 20.5937 44.7169 21.6584 45.558C22.7231 46.3991 24.0477 46.8428 25.4042 46.8126H53.9293C55.2568 46.8104 56.544 46.3555 57.5781 45.5229C58.6122 44.6904 59.3313 43.53 59.6168 42.2334L64.4293 20.5626H14.9334" stroke="black" stroke-width="4" stroke-linecap="round" stroke-linejoin="round"/>
</svg>
