<svg width="70" height="70" viewBox="0 0 70 70" fill="none" xmlns="http://www.w3.org/2000/svg">
<path d="M40.8333 52.5L52.4999 64.1667L64.1666 52.5" stroke="#E06B74" stroke-width="4" stroke-linecap="round" stroke-linejoin="round"/>
<path d="M46.6667 5.83325V17.4999" stroke="black" stroke-width="4" stroke-linecap="round" stroke-linejoin="round"/>
<path d="M52.5 40.8333V64.1666" stroke="#E06B74" stroke-width="4" stroke-linecap="round" stroke-linejoin="round"/>
<path d="M61.25 33.1159V17.5001C61.25 15.953 60.6354 14.4693 59.5415 13.3753C58.4475 12.2813 56.9638 11.6667 55.4167 11.6667H14.5833C13.0362 11.6667 11.5525 12.2813 10.4585 13.3753C9.36458 14.4693 8.75 15.953 8.75 17.5001V58.3334C8.75 59.8805 9.36458 61.3642 10.4585 62.4582C11.5525 63.5522 13.0362 64.1667 14.5833 64.1667H36.0004" stroke="black" stroke-width="4" stroke-linecap="round" stroke-linejoin="round"/>
<path d="M8.75 29.1667H61.25" stroke="black" stroke-width="4" stroke-linecap="round" stroke-linejoin="round"/>
<path d="M23.3333 5.83325V17.4999" stroke="black" stroke-width="4" stroke-linecap="round" stroke-linejoin="round"/>
</svg>
