<svg width="70" height="70" viewBox="0 0 70 70" fill="none" xmlns="http://www.w3.org/2000/svg">
<path d="M58.0825 32.3895C58.2476 31.3231 58.3315 30.2457 58.3333 29.1666C58.3333 22.9782 55.875 17.0433 51.4991 12.6674C47.1233 8.29158 41.1883 5.83325 35 5.83325C28.8116 5.83325 22.8767 8.29158 18.5008 12.6674C14.125 17.0433 11.6666 22.9782 11.6666 29.1666C11.6666 43.7295 27.822 58.8962 33.247 63.5803C33.7524 63.9604 34.3676 64.1659 35 64.1659C35.6323 64.1659 36.2475 63.9604 36.7529 63.5803C37.5663 62.8767 38.3676 62.1591 39.1562 61.4278" stroke="black" stroke-width="4" stroke-linecap="round" stroke-linejoin="round"/>
<path d="M35 37.9167C39.8325 37.9167 43.75 33.9992 43.75 29.1667C43.75 24.3343 39.8325 20.4167 35 20.4167C30.1675 20.4167 26.25 24.3343 26.25 29.1667C26.25 33.9992 30.1675 37.9167 35 37.9167Z" stroke="black" stroke-width="4" stroke-linecap="round" stroke-linejoin="round"/>
<path d="M46.6666 52.5H64.1666" stroke="#E06B74" stroke-width="4" stroke-linecap="round" stroke-linejoin="round"/>
<path d="M55.4166 43.75V61.25" stroke="#E06B74" stroke-width="4" stroke-linecap="round" stroke-linejoin="round"/>
</svg>
