<svg width="80" height="80" viewBox="0 0 80 80" fill="none" xmlns="http://www.w3.org/2000/svg">
<path d="M40 43.3332V6.6665L66.6667 19.9998L40 33.3332" stroke="#252525" stroke-width="4" stroke-linecap="round" stroke-linejoin="round"/>
<path d="M68.5366 34.0733C70.3104 39.5404 70.4764 45.402 69.0147 50.9608C67.5531 56.5195 64.5254 61.5414 60.2918 65.4289C56.0582 69.3164 50.797 71.9059 45.134 72.8894C39.4711 73.8728 33.6448 73.2088 28.3484 70.9763C23.052 68.7438 18.5084 65.0368 15.2582 60.2963C12.008 55.5558 10.1879 49.9814 10.0146 44.2364C9.84131 38.4913 11.322 32.8173 14.2806 27.8896C17.2392 22.9618 21.551 18.9877 26.7032 16.4399" stroke="#252525" stroke-width="4" stroke-linecap="round" stroke-linejoin="round"/>
<path d="M26.6733 33.3232C25.003 35.5467 23.9156 38.1527 23.5101 40.9039C23.1047 43.6551 23.3941 46.464 24.352 49.0747C25.3099 51.6855 26.9058 54.015 28.9944 55.8511C31.083 57.6873 33.5978 58.9716 36.3098 59.5871C39.0217 60.2026 41.8446 60.1298 44.5211 59.3752C47.1977 58.6206 49.6429 57.2083 51.634 55.2668C53.6251 53.3254 55.0988 50.9167 55.9207 48.26C56.7427 45.6033 56.8868 42.7832 56.34 40.0566" stroke="#E06B74" stroke-width="4" stroke-linecap="round" stroke-linejoin="round"/>
</svg>
