<svg width="80" height="80" viewBox="0 0 80 80" fill="none" xmlns="http://www.w3.org/2000/svg">
<path d="M20 6.6665L10 19.9998V66.6665C10 68.4346 10.7024 70.1303 11.9526 71.3805C13.2029 72.6308 14.8986 73.3332 16.6667 73.3332H63.3333C65.1014 73.3332 66.7971 72.6308 68.0474 71.3805C69.2976 70.1303 70 68.4346 70 66.6665V19.9998L60 6.6665H20Z" stroke="black" stroke-width="4" stroke-linecap="round" stroke-linejoin="round"/>
<path d="M10 20H70" stroke="black" stroke-width="4" stroke-linecap="round" stroke-linejoin="round"/>
<path d="M53.3333 33.3335C53.3333 36.8697 51.9285 40.2611 49.428 42.7616C46.9276 45.2621 43.5362 46.6668 40 46.6668C36.4637 46.6668 33.0724 45.2621 30.5719 42.7616C28.0714 40.2611 26.6666 36.8697 26.6666 33.3335" stroke="#E06B74" stroke-width="4" stroke-linecap="round" stroke-linejoin="round"/>
</svg>
