<svg width="24" height="24" viewBox="0 0 24 24" fill="none" xmlns="http://www.w3.org/2000/svg">
<path d="M12 0L13.8729 2.58446L16.5922 0.913445L17.3335 4.01789L20.4853 3.51472L19.9821 6.66653L23.0866 7.4078L21.4155 10.1271L24 12L21.4155 13.8729L23.0866 16.5922L19.9821 17.3335L20.4853 20.4853L17.3335 19.9821L16.5922 23.0866L13.8729 21.4155L12 24L10.1271 21.4155L7.4078 23.0866L6.66653 19.9821L3.51472 20.4853L4.01789 17.3335L0.913445 16.5922L2.58446 13.8729L0 12L2.58446 10.1271L0.913445 7.4078L4.01789 6.66653L3.51472 3.51472L6.66653 4.01789L7.4078 0.913445L10.1271 2.58446L12 0Z" fill="#FFE100"/>
</svg>
