<svg width="34" height="34" viewBox="0 0 34 34" fill="none" xmlns="http://www.w3.org/2000/svg">
<path d="M28.3334 18.4167C28.3334 25.5001 23.3751 29.0417 17.4817 31.0959C17.1731 31.2005 16.8379 31.1955 16.5326 31.0817C10.6251 29.0417 5.66675 25.5001 5.66675 18.4167V8.50007C5.66675 8.12434 5.816 7.76401 6.08168 7.49833C6.34736 7.23266 6.70769 7.0834 7.08341 7.0834C9.91675 7.0834 13.4584 5.3834 15.9234 3.23007C16.2235 2.97365 16.6053 2.83276 17.0001 2.83276C17.3948 2.83276 17.7766 2.97365 18.0767 3.23007C20.5559 5.39757 24.0834 7.0834 26.9167 7.0834C27.2925 7.0834 27.6528 7.23266 27.9185 7.49833C28.1842 7.76401 28.3334 8.12434 28.3334 8.50007V18.4167Z" stroke="black" stroke-width="3" stroke-linecap="round" stroke-linejoin="round"/>
<path d="M6.01099 7.38086L26.3968 25.0495" stroke="#E06B74" stroke-width="3" stroke-linecap="round" stroke-linejoin="round"/>
</svg>
